<?xml version="1.0" standalone="no"?>
<!DOCTYPE svg PUBLIC "-//W3C//DTD SVG 20010904//EN"
 "http://www.w3.org/TR/2001/REC-SVG-20010904/DTD/svg10.dtd">
<svg version="1.0" xmlns="http://www.w3.org/2000/svg"
 width="259.000000pt" height="194.000000pt" viewBox="0 0 259.000000 194.000000"
 preserveAspectRatio="xMidYMid meet">
<metadata>
Created by potrace 1.11, written by Peter Selinger 2001-2013
</metadata>
<g transform="translate(0.000000,194.000000) scale(0.100000,-0.100000)"
fill="#000000" stroke="none">
<path d="M945 1709 c-58 -6 -129 -21 -170 -35 -38 -14 -76 -26 -84 -28 -14 -3
-27 -29 -71 -148 -16 -43 -38 -91 -49 -106 -19 -27 -25 -29 -117 -36 -53 -4
-101 -9 -105 -12 -12 -7 -11 -114 1 -115 6 -1 15 -3 20 -4 6 -1 41 -3 79 -4
64 -1 69 -3 73 -25 4 -21 0 -25 -27 -30 -18 -4 -39 -14 -48 -24 -17 -20 -67
-134 -67 -156 0 -7 -9 -16 -20 -19 -18 -5 -19 -14 -17 -161 2 -149 3 -156 22
-154 11 0 145 0 298 0 188 -2 277 -5 277 -13 0 -7 -92 -9 -300 -7 l-300 3 0
-194 c0 -114 5 -209 11 -231 11 -35 15 -38 57 -44 24 -3 61 -6 81 -6 21 0 42
-5 49 -12 36 -36 1528 -36 1540 0 2 8 28 12 70 12 37 0 72 4 78 8 7 4 17 25
22 47 15 56 25 280 17 356 l-7 64 -146 -6 c-240 -11 -442 -10 -442 1 0 6 44
10 113 10 63 0 195 3 295 7 l181 6 -1 86 c-1 47 2 114 6 148 8 61 7 62 -18 69
-19 4 -26 13 -26 30 0 13 1 25 1 27 1 1 -7 20 -18 42 -12 22 -20 43 -19 46 3
14 -38 49 -70 61 -24 8 -34 18 -34 33 0 20 6 21 97 23 53 1 98 4 101 7 7 7 6
104 -1 112 -4 3 -56 9 -116 11 -106 4 -108 5 -125 32 -9 16 -26 59 -37 97 -42
136 -55 158 -107 176 -26 10 -54 17 -64 17 -9 0 -18 4 -20 9 -10 29 -646 51
-863 30z m806 -89 c41 -6 75 -14 77 -19 2 -5 13 -7 25 -4 18 4 19 3 7 -6 -10
-7 -11 -11 -2 -11 16 0 16 -56 0 -66 -6 -4 -14 -2 -16 4 -2 7 -17 12 -33 12
-19 0 -29 5 -29 15 0 8 -10 17 -22 19 -50 11 -194 26 -244 26 -30 0 -90 7
-135 16 -69 14 -82 15 -90 3 -6 -9 -9 -10 -9 -2 0 8 -9 9 -32 2 -42 -12 -57
-11 -38 1 11 7 5 10 -25 11 -39 1 -39 2 -10 9 40 11 484 3 576 -10z m-142
-105 c114 -13 175 -31 177 -50 1 -6 5 -27 8 -47 6 -31 4 -38 -9 -38 -9 0 -23
6 -31 14 -15 16 -124 30 -163 22 -71 -15 -155 -76 -134 -97 14 -14 36 -2 27
13 -4 7 -2 8 4 4 6 -4 33 3 60 14 44 19 78 23 181 20 36 -1 60 -22 61 -52 0
-20 37 -43 65 -40 16 1 15 0 -4 -8 -27 -12 -232 1 -436 26 -66 8 -147 18 -180
21 -48 5 -66 11 -89 34 -15 16 -33 29 -39 29 -5 0 -15 8 -22 17 -10 13 -33 18
-106 21 -86 4 -96 2 -113 -17 -11 -12 -27 -21 -36 -21 -15 0 -16 6 -7 50 7 34
17 54 30 62 67 35 530 50 756 23z m-889 -509 c306 -8 655 -8 1045 0 331 6 361
5 374 -10 13 -16 -38 -17 -813 -13 -773 4 -828 5 -844 21 -16 17 -15 18 13 12
17 -3 118 -8 225 -10z m76 -45 c65 -1 91 -5 91 -13 0 -7 10 -51 22 -97 12 -46
20 -85 18 -87 -2 -2 -56 -7 -120 -10 -89 -5 -117 -4 -117 5 0 9 -18 12 -58 10
-82 -3 -95 7 -96 74 -1 30 -4 59 -8 63 -10 9 -10 48 -1 57 3 4 45 5 92 3 47
-2 127 -4 177 -5z m908 -18 c-10 -45 -46 -153 -51 -153 -3 0 -2 12 2 28 29
110 32 132 19 132 -7 0 -20 -21 -28 -47 -14 -42 -13 -16 0 30 3 11 0 17 -9 17
-9 0 -20 -16 -26 -37 l-10 -38 5 39 c9 66 -17 37 -44 -48 -14 -46 -27 -74 -32
-67 -5 8 -12 4 -24 -13 l-16 -26 -185 0 -185 0 -16 26 c-12 18 -19 22 -25 13
-9 -15 -18 4 -46 94 -10 33 -22 57 -28 55 -5 -1 -9 -5 -9 -8 1 -3 4 -21 8 -40
5 -35 5 -35 -8 4 -17 55 -41 62 -33 10 6 -37 6 -37 -4 -9 -6 17 -13 36 -15 44
-3 10 -8 11 -15 4 -7 -7 -5 -31 6 -77 9 -37 15 -69 13 -72 -6 -5 -48 126 -48
149 0 16 26 17 405 17 l405 0 -6 -27z m478 3 c5 -7 8 -3 8 8 0 32 17 5 23 -36
3 -21 2 -40 -3 -43 -4 -3 -6 -14 -3 -24 3 -11 0 -36 -7 -55 -11 -35 -13 -36
-61 -36 -53 0 -56 4 -43 69 6 29 9 31 53 33 l46 2 -47 3 c-46 4 -48 6 -48 34
0 53 56 84 82 45z m-106 -2 c-1 -7 -5 -17 -9 -20 -4 -4 -7 -17 -7 -28 0 -18 2
-19 11 -6 8 12 9 10 5 -10 -3 -14 -6 -39 -6 -57 0 -17 -6 -38 -14 -46 -28 -28
-396 -32 -379 -4 3 6 7 21 9 35 1 14 10 54 20 89 l17 63 177 -1 c144 -1 178
-4 176 -15z m-451 -297 c4 -13 4 -44 1 -68 -2 -24 -5 -50 -5 -57 -1 -11 -50
-13 -263 -11 -145 2 -287 5 -315 7 l-53 4 0 74 0 74 315 0 315 0 5 -23z"/>
<path d="M1050 940 c0 -50 -5 -49 256 -49 184 0 244 3 244 12 0 7 3 21 6 33 5
18 1 21 -31 22 -21 1 -33 -3 -30 -8 3 -6 15 -10 26 -10 11 0 18 -4 15 -9 -10
-15 -96 -11 -96 4 0 8 7 11 20 8 11 -3 20 0 20 6 0 8 -59 11 -215 11 -202 -1
-215 -3 -215 -20z"/>
<path d="M1158 872 c-49 -1 -88 -6 -88 -9 0 -3 11 -26 25 -50 l26 -43 179 0
179 0 19 28 c10 15 24 37 31 49 l11 22 -147 3 c-82 2 -187 2 -235 0z"/>
<path d="M1000 596 c0 -56 3 -66 18 -66 9 0 146 -3 305 -7 242 -5 287 -4 287
8 1 8 3 37 5 66 2 34 0 53 -8 55 -7 3 -146 6 -309 7 l-298 3 0 -66z"/>
</g>
</svg>
